<svg width="512" height="512" viewBox="0 0 512 512" fill="none" xmlns="http://www.w3.org/2000/svg">
<path fill-rule="evenodd" clip-rule="evenodd" d="M238.33 43.3269C245.846 29.1514 266.155 29.1514 273.671 43.327L289.944 74.022C365.029 87.7703 424.228 146.97 437.977 222.054L468.672 238.328C482.847 245.844 482.847 266.153 468.672 273.669L437.77 290.052C423.681 364.414 364.968 422.986 290.532 436.866L273.671 468.67C266.155 482.845 245.846 482.845 238.33 468.67L221.357 436.655C147.646 422.44 89.5589 364.353 75.3434 290.642L43.3289 273.669C29.1534 266.153 29.1534 245.844 43.3289 238.328L75.1326 221.467C89.0126 147.031 147.585 88.3175 221.947 74.2287L238.33 43.3269ZM193.5 127C200.404 127 206 132.596 206 139.5V157H223.5C230.404 157 236 162.596 236 169.5C236 176.404 230.404 182 223.5 182H206V200.5C206 207.404 200.404 213 193.5 213C186.597 213 181 207.404 181 200.5V182H162.5C155.597 182 150 176.404 150 169.5C150 162.596 155.597 157 162.5 157H181V139.5C181 132.596 186.597 127 193.5 127ZM389.83 183.569C390.427 176.195 383.722 170.346 376.498 171.938L306.846 187.291C298.029 189.235 295.179 200.387 301.983 206.323L319.356 221.478L300.664 240.17L284.412 223.918C277.969 217.476 267.859 216.938 260.804 222.304C259.678 223.01 258.614 223.853 257.634 224.833L216.305 266.162L201.424 251.281C197.739 247.596 192.853 245.843 188.025 246.022C183.205 245.849 178.328 247.602 174.648 251.282L116.728 309.202C109.699 316.231 109.699 327.628 116.728 334.658L120.341 338.271C127.371 345.3 138.768 345.3 145.797 338.271L188.037 296.031L197.444 305.439C198.095 306.417 198.852 307.346 199.714 308.208L203.328 311.822C205.848 314.342 208.929 315.958 212.169 316.671C218.143 318.224 224.76 316.659 229.44 311.979L233.053 308.366C234.16 307.259 235.093 306.043 235.851 304.754L271.48 269.125L286.971 284.616C288.049 285.693 289.229 286.606 290.48 287.353C297.507 292.329 307.301 291.67 313.595 285.376L350.407 248.565L365.877 262.06C372.681 267.996 383.343 263.659 384.072 254.659L389.83 183.569ZM276 347.5C276 340.596 281.597 335 288.5 335H349.5C356.404 335 362 340.596 362 347.5C362 354.404 356.404 360 349.5 360H288.5C281.597 360 276 354.404 276 347.5Z"/>
</svg>
